<svg xmlns="http://www.w3.org/2000/svg" xmlns:xlink="http://www.w3.org/1999/xlink" version="1.1" id="Layer_1" x="0px" y="0px" style="enable-background:new 0 0 1126.1 131.2;" xml:space="preserve" viewBox="0 0 1126.2 131.2">
<style type="text/css">
	.st0{fill:#FFFFFF;}
	.st1{fill:#22D3EE;}
</style>
<g>
	<path class="st0" d="M0,101.4V0h71.7v18.5H21.6v22h49.1v18.5H21.6v42.3H0z"/>
	<path class="st0" d="M86.3,101.4V28h19.3v10c5.2-6.5,14.3-11.7,23.4-11.7v18.8c-1.4-0.3-3.2-0.5-5.3-0.5c-6.4,0-14.9,3.5-18.1,8.2   v48.5H86.3z"/>
	<path class="st0" d="M174.3,26.1c21.9,0,36.8,16.4,36.8,40.4v4.3h-54.6c1.2,9.3,8.7,17,21.1,17c6.8,0,14.9-2.7,19.6-7.3l8.5,12.5   c-7.4,6.8-18.8,10.2-30.2,10.2c-22.3,0-39.2-15-39.2-38.6C136.3,43.3,152,26.1,174.3,26.1z M156.3,57.8h36.2   c-0.5-7-5.3-16.3-18.1-16.3C162.3,41.5,157.2,50.5,156.3,57.8z"/>
	<path class="st0" d="M258.4,26.1c21.9,0,36.8,16.4,36.8,40.4v4.3h-54.6c1.2,9.3,8.7,17,21.1,17c6.8,0,14.9-2.7,19.6-7.3l8.5,12.5   c-7.4,6.8-18.8,10.2-30.2,10.2c-22.3,0-39.2-15-39.2-38.6C220.4,43.3,236.1,26.1,258.4,26.1z M240.3,57.8h36.2   c-0.5-7-5.3-16.3-18.1-16.3C246.4,41.5,241.2,50.5,240.3,57.8z"/>
	<path class="st0" d="M343.4,26.1c15,0,24.2,6.5,29,13.4l-12.6,11.7c-3.5-5-8.8-7.9-15.5-7.9c-11.7,0-19.9,8.5-19.9,21.3   S332.6,86,344.3,86c6.7,0,12-3,15.5-7.9l12.6,11.7c-4.9,6.8-14,13.4-29,13.4c-22.6,0-38.9-16-38.9-38.6   C304.5,42.1,320.7,26.1,343.4,26.1z"/>
	<path class="st0" d="M434.6,101.4v-9.3c-5,5.6-13.8,11.1-25.8,11.1c-16.1,0-23.7-8.8-23.7-23.1V28h19.3v44.5   c0,10.2,5.3,13.5,13.5,13.5c7.4,0,13.4-4.1,16.7-8.4V28h19.3v73.4H434.6z"/>
	<path class="st0" d="M473,101.4V28h19.3v10c5.2-6.5,14.3-11.7,23.4-11.7v18.8c-1.4-0.3-3.2-0.5-5.3-0.5c-6.4,0-14.9,3.5-18.1,8.2   v48.5H473z"/>
	<path class="st0" d="M527.7,101.4V28H547v10c5.2-6.5,14.3-11.7,23.4-11.7v18.8c-1.4-0.3-3.2-0.5-5.3-0.5c-6.4,0-14.9,3.5-18.1,8.2   v48.5H527.7z"/>
	<path class="st0" d="M615.7,26.1c21.9,0,36.8,16.4,36.8,40.4v4.3H598c1.2,9.3,8.7,17,21.1,17c6.8,0,14.9-2.7,19.6-7.3l8.5,12.5   c-7.4,6.8-18.8,10.2-30.2,10.2c-22.3,0-39.2-15-39.2-38.6C577.7,43.3,593.4,26.1,615.7,26.1z M597.7,57.8h36.2   c-0.5-7-5.3-16.3-18.1-16.3C603.7,41.5,598.6,50.5,597.7,57.8z"/>
	<path class="st0" d="M716.1,101.4V57c0-10.2-5.3-13.7-13.5-13.7c-7.6,0-13.5,4.3-16.7,8.7v49.4h-19.3V28h19.3v9.6   c4.7-5.6,13.7-11.4,25.7-11.4c16.1,0,23.9,9.1,23.9,23.4v51.8H716.1z"/>
	<path class="st0" d="M788.7,26.1c15,0,24.2,6.5,29,13.4l-12.6,11.7c-3.5-5-8.8-7.9-15.5-7.9c-11.7,0-19.9,8.5-19.9,21.3   S777.9,86,789.6,86c6.7,0,12-3,15.5-7.9l12.6,11.7c-4.9,6.8-14,13.4-29,13.4c-22.6,0-38.9-16-38.9-38.6   C749.8,42.1,766.1,26.1,788.7,26.1z"/>
	<path class="st0" d="M830.7,112.8c1.7,0.8,4.3,1.2,6.1,1.2c5,0,8.4-1.4,10.2-5.3l2.7-6.2L819.9,28h20.7L859.7,79L878.8,28h20.8   l-34.5,85.4c-5.5,13.8-15.2,17.5-27.8,17.8c-2.3,0-7.1-0.5-9.6-1.1L830.7,112.8z"/>
	<path class="st1" d="M976.7,101.4l-6.4-17.5h-45.3l-6.4,17.5H895L934.2,0h27.1l39.1,101.4H976.7z M947.7,18.7l-16.9,46.5h33.6   L947.7,18.7z"/>
	<path class="st1" d="M1009.7,101.4V0h47.4c22,0,34,14.9,34,32.7c0,17.6-12.2,32.4-34,32.4h-25.8v36.3H1009.7z M1054.3,18.5h-23v28   h23c8.5,0,14.9-5.5,14.9-14C1069.1,24.2,1062.8,18.5,1054.3,18.5z"/>
	<path class="st1" d="M1104.6,101.4V0h21.6v101.4H1104.6z"/>
</g>
</svg>